<?xml version="1.0" standalone="no"?>
<!DOCTYPE svg PUBLIC "-//W3C//DTD SVG 20010904//EN"
 "http://www.w3.org/TR/2001/REC-SVG-20010904/DTD/svg10.dtd">
<svg version="1.0" xmlns="http://www.w3.org/2000/svg"
 width="512.000000pt" height="512.000000pt" viewBox="0 0 512.000000 512.000000"
 preserveAspectRatio="xMidYMid meet">
<metadata>
Created by potrace 1.14, written by Peter Selinger 2001-2017
</metadata>
<g transform="translate(0.000000,512.000000) scale(0.100000,-0.100000)"
fill="#000000" stroke="none">
<path d="M2595 4322 c-1 -1 -27 -5 -56 -8 -101 -10 -336 -82 -347 -106 -2 -5
-9 -8 -16 -8 -7 0 -53 -27 -102 -59 -124 -82 -254 -212 -312 -311 -14 -25 -29
-47 -32 -50 -29 -24 -138 -319 -132 -356 1 -6 -11 -17 -26 -23 -52 -22 -98
-99 -98 -164 1 -29 -2 -36 -14 -31 -70 30 -40 37 -410 -103 -36 -14 -87 -33
-115 -43 -89 -33 -83 10 -83 -587 0 -519 2 -555 32 -575 13 -9 201 -10 233 -2
12 3 27 18 33 34 13 31 -1 76 -40 131 -16 21 -20 37 -15 59 4 17 10 30 15 30
5 0 11 13 15 29 4 21 17 33 55 51 53 25 45 26 129 -20 27 -15 38 -16 57 -8 33
15 39 47 20 111 -20 70 -20 70 9 83 22 11 29 8 69 -27 50 -44 96 -116 92 -144
-2 -13 -14 -22 -37 -26 -18 -4 -42 -17 -51 -29 -17 -22 -20 -32 -20 -85 0 -14
0 -31 1 -38 1 -9 31 -12 122 -11 119 1 121 0 130 -23 5 -13 9 -26 9 -29 0 -2
-70 -4 -155 -4 l-154 0 -3 -57 c-2 -37 -7 -57 -15 -56 -6 1 -17 -4 -23 -12
-16 -19 -64 -19 -79 -1 -14 17 -83 14 -89 -3 -2 -7 -38 -11 -103 -11 l-99 0 0
-280 0 -280 831 0 831 0 35 -31 c28 -24 41 -29 62 -24 74 20 99 15 146 -28
l45 -42 -46 -49 c-25 -27 -50 -60 -55 -73 -23 -61 1 -113 52 -113 13 0 52 -15
87 -32 62 -32 64 -32 93 -16 29 17 29 17 29 -7 0 -13 10 -35 23 -48 18 -20 27
-22 54 -15 31 8 43 28 59 99 3 13 6 29 7 34 2 6 6 16 10 23 5 6 6 12 3 12 -3
0 -2 10 3 23 5 13 12 41 15 63 9 52 29 80 76 104 53 27 66 52 46 90 l-14 30
384 0 384 0 0 265 c0 244 1 266 18 271 49 16 81 39 85 63 10 50 -20 75 -87 71
-23 -1 -36 2 -32 8 3 6 -2 20 -13 33 -14 17 -27 22 -59 21 -44 -2 -48 4 -51
63 -1 31 -31 65 -54 61 -44 -8 -55 -19 -66 -62 -11 -41 -35 -64 -70 -64 -9 0
-86 59 -80 61 2 1 17 3 32 5 39 4 57 21 57 55 0 15 7 32 15 36 7 5 35 35 60
67 55 71 58 110 12 136 -25 14 -30 13 -57 -2 -25 -14 -30 -14 -41 -2 -6 8 -17
14 -23 13 -6 -1 -38 -1 -71 0 l-61 1 2 193 c1 174 3 197 23 241 38 85 67 210
76 331 8 90 14 123 28 137 7 7 27 41 45 76 33 62 33 64 27 160 -3 53 -8 111
-10 127 -3 17 -7 66 -10 110 -3 44 -7 96 -9 115 -2 19 -7 78 -11 130 -3 52
-11 100 -17 108 -11 13 -108 11 -228 -3 -19 -2 -77 -7 -128 -10 l-94 -6 -76
50 c-63 41 -210 116 -219 113 -2 -1 -23 7 -48 18 -25 11 -48 19 -50 19 -3 0
-31 5 -62 11 -31 7 -75 14 -97 16 -53 6 -207 10 -211 6z m1023 -371 c56 -24
80 -104 46 -156 -14 -22 -45 -42 -42 -27 1 8 -13 45 -21 52 -13 11 -93 122
-89 124 12 8 55 23 63 22 6 -1 25 -8 43 -15z m-13 -1559 c-6 -7 -37 -10 -102
-11 -78 -1 -82 -9 -79 -154 1 -67 6 -130 10 -139 12 -25 -4 -22 -39 8 -16 14
-42 28 -57 31 -29 6 -29 4 -47 126 -9 63 -10 62 50 107 68 51 158 143 210 214
l54 73 3 -125 c1 -68 0 -127 -3 -130z m-1625 -402 c12 -8 11 -10 -7 -10 -13 0
-23 5 -23 10 0 13 11 13 30 0z"/>
</g>
</svg>
